<?xml version="1.0" encoding="utf-8"?>
<svg xmlns="http://www.w3.org/2000/svg" viewBox="89.9122 65.5589 289.9744 89.5526" width="289.974px" height="89.5526px" preserveAspectRatio="none"><g transform="matrix(0.10000000149011612, 0, 0, -0.1000000014901161, 85.88666353318487, 161.41441004847542)" fill="#000000" stroke="none" id="object-0"><path d="M1135 953 c-16 -2 -39 -8 -50 -12 -11 -5 -67 -18 -125 -30 -58 -11 -172 -39 -255 -61 -193 -52 -265 -63 -394 -58 -91 3 -113 8 -158 31 -41 21 -53 24 -53 13 0 -34 99 -77 223 -96 126 -20 219 -7 558 74 238 57 327 68 527 64 175 -3 178 -4 254 -36 43 -19 114 -56 159 -83 86 -52 109 -57 68 -13 -81 88 -252 176 -383 199 -81 14 -291 18 -371 8z" style="fill: rgb(255, 215, 0);"/><path d="M982 749 c6 -18 41 -35 147 -71 194 -66 272 -80 474 -85 223 -6 336 5 478 48 179 54 343 50 498 -12 86 -34 208 -105 265 -153 l39 -33 -12 -64 c-19 -98 -24 -106 -78 -122 l-48 -15 61 -1 c75 -1 100 19 89 69 -5 24 -1 40 19 70 14 22 26 46 26 53 0 19 -104 122 -177 173 -161 116 -371 171 -549 144 -43 -6 -115 -22 -159 -35 -141 -42 -243 -57 -410 -61 -186 -4 -302 10 -498 60 -73 19 -140 37 -151 42 -14 5 -18 3 -14 -7z" style="fill: rgb(255, 215, 0);"/><path d="M44 675 c-4 -15 -5 -74 -2 -133 4 -89 9 -117 31 -166 43 -92 114 -164 150 -150 11 4 17 30 22 93 8 105 41 174 106 221 57 41 102 53 175 47 79 -6 156 -47 201 -106 39 -51 53 -97 53 -178 0 -48 3 -63 15 -63 34 0 28 163 -10 243 -25 53 -103 127 -163 155 -48 21 -64 24 -140 20 -98 -5 -145 -24 -214 -86 -47 -43 -88 -121 -88 -172 0 -48 -14 -68 -34 -51 -30 25 -76 205 -76 297 0 49 -16 67 -26 29z" style="fill: rgb(255, 215, 0);"/><path d="M688 644 c17 -8 32 -19 32 -24 0 -6 9 -10 20 -10 11 0 37 -15 57 -33 66 -57 79 -62 33 -13 -25 27 -60 55 -77 62 -18 8 -33 19 -33 24 0 6 -15 10 -32 9 l-33 -1 33 -14z" style="fill: rgb(255, 215, 0);"/><path d="M2496 535 c31 -31 59 -54 61 -51 8 8 -88 106 -104 106 -8 0 12 -25 43 -55z" style="fill: rgb(255, 215, 0);"/><path d="M2240 573 c0 -6 33 -13 74 -16 40 -3 88 -13 106 -22 17 -9 37 -14 43 -12 7 2 -8 14 -33 27 -48 25 -190 42 -190 23z" style="fill: rgb(255, 215, 0);"/><path d="M2138 511 c-54 -50 -98 -111 -79 -111 6 0 27 22 46 49 19 26 53 60 75 75 43 28 48 36 26 36 -8 0 -38 -22 -68 -49z" style="fill: rgb(255, 215, 0);"/><path d="M1015 540 c-11 -17 72 -83 162 -129 46 -23 53 -25 53 -13 0 4 -31 25 -70 45 -72 39 -102 65 -55 47 36 -14 43 -12 21 5 -11 8 -30 15 -43 15 -12 0 -27 9 -33 20 -12 22 -25 26 -35 10z" style="fill: rgb(255, 215, 0);"/><path d="M2480 501 c0 -5 7 -14 16 -22 8 -7 27 -34 40 -61 13 -26 27 -48 29 -48 14 0 1 42 -25 82 -28 43 -60 69 -60 49z" style="fill: rgb(255, 215, 0);"/><path d="M1678 461 c-65 -18 -91 -37 -38 -27 90 17 130 29 130 37 0 12 -25 10 -92 -10z" style="fill: rgb(255, 215, 0);"/><path d="M1835 410 c-131 -40 -178 -46 -377 -49 -46 -1 -78 -5 -78 -11 0 -11 231 -7 317 5 39 5 224 55 266 70 14 6 17 1 17 -31 0 -29 3 -35 10 -24 5 8 10 30 10 48 0 41 -2 41 -165 -8z" style="fill: rgb(255, 215, 0);"/><path d="M1353 429 c-29 -10 25 -19 112 -18 71 0 147 14 105 19 -42 5 -203 4 -217 -1z" style="fill: rgb(255, 215, 0);"/><path d="M905 363 c8 -53 31 -99 54 -109 24 -10 1014 -4 1031 7 9 5 -181 8 -490 7 -589 -2 -560 -6 -574 85 -4 31 -13 57 -18 57 -7 0 -8 -18 -3 -47z" style="fill: rgb(255, 215, 0);"/><path d="M293 357 c7 -51 34 -123 43 -114 3 3 -2 26 -10 51 -9 26 -16 58 -16 71 0 13 -5 27 -12 31 -8 5 -9 -5 -5 -39z" style="fill: rgb(255, 215, 0);"/><path d="M2491 350 c-13 -62 -14 -70 -2 -70 5 0 14 23 20 50 13 62 14 70 2 70 -5 0 -14 -23 -20 -50z" style="fill: rgb(255, 215, 0);"/><path d="M2587 385 c-14 -35 -21 -145 -9 -145 11 0 27 113 20 146 -3 18 -4 18 -11 -1z" style="fill: rgb(255, 215, 0);"/><path d="M2520 284 c0 -34 4 -53 10 -49 6 3 10 28 10 56 0 27 -4 49 -10 49 -5 0 -10 -25 -10 -56z" style="fill: rgb(255, 215, 0);"/><path d="M676 291 c-11 -23 -40 -63 -65 -87 -44 -44 -42 -58 4 -28 34 22 87 109 83 136 -2 19 -6 16 -22 -21z" style="fill: rgb(255, 215, 0);"/><path d="M728 290 c-3 -8 -11 -35 -18 -59 -9 -32 -27 -59 -67 -98 -31 -29 -49 -53 -41 -53 19 0 100 86 123 129 9 18 15 47 13 64 -3 19 -6 26 -10 17z" style="fill: rgb(255, 215, 0);"/><path d="M2453 240 c-7 -10 -31 -30 -53 -42 -41 -23 -51 -38 -26 -38 15 0 106 77 106 91 0 15 -15 10 -27 -11z" style="fill: rgb(255, 215, 0);"/><path d="M270 235 c0 -15 35 -73 59 -98 41 -45 72 -58 35 -15 -17 20 -42 54 -55 77 -20 35 -39 53 -39 36z" style="fill: rgb(255, 215, 0);"/><path d="M850 217 c0 -36 42 -39 580 -44 507 -4 650 1 640 22 -3 5 -8 9 -11 8 -33 -11 -123 -13 -499 -13 -492 0 -687 8 -701 31 -7 11 -9 11 -9 -4z" style="fill: rgb(255, 215, 0);"/><path d="M2090 226 c0 -39 113 -146 154 -146 16 1 12 6 -19 25 -22 13 -61 48 -87 77 -26 29 -48 49 -48 44z" style="fill: rgb(255, 215, 0);"/><path d="M2476 174 c-16 -20 -52 -49 -80 -65 -54 -31 -39 -41 20 -13 50 24 129 116 97 113 -5 0 -21 -16 -37 -35z" style="fill: rgb(255, 215, 0);"/><path d="M445 150 c3 -5 28 -10 56 -10 27 0 49 5 49 10 0 6 -25 10 -56 10 -34 0 -53 -4 -49 -10z" style="fill: rgb(255, 215, 0);"/><path d="M404 82 c9 -16 130 -26 152 -13 16 8 10 10 -31 11 -27 0 -68 3 -89 7 -27 4 -37 3 -32 -5z" style="fill: rgb(255, 215, 0);"/></g></svg>